<svg xmlns="http://www.w3.org/2000/svg" x="0px" y="0px" width="254px" height="58px" viewBox="0 0 254 58" enable-background="new 0 0 254 58" xml:space="preserve"><path fill="#FFFFFF" d="M33.87 52.23c0 0.04 0 0.07-0.01 0.11 -0.03 0.43-0.22 0.84-0.54 1.2 -1.58 0.31-3.22 0.47-4.89 0.47 -1.82 0-3.61-0.19-5.32-0.56 -0.28-0.34-0.44-0.72-0.47-1.11 0-0.04 0-0.07 0-0.11 0-1.69 2.51-3.06 5.62-3.06C31.35 49.18 33.87 50.54 33.87 52.23"></path><path fill="#FFFFFF" d="M26.76 46.02v1.74c-3.35 0.39-5.91 1.92-6.25 3.8 -2.17-0.76-4.2-1.8-6.05-3.1 0.16-0.09 0.33-0.17 0.5-0.25 0.03-0.02 0.07-0.04 0.1-0.05 0.15-0.08 0.3-0.14 0.47-0.21 0.06-0.03 0.12-0.05 0.18-0.08 0.11-0.04 0.22-0.09 0.34-0.13 0.05-0.02 0.1-0.04 0.14-0.06 0.01 0 0.01 0 0.01 0 0.02-0.01 0.03-0.02 0.05-0.02 0.12-0.04 0.24-0.09 0.36-0.13 0.17-0.06 0.34-0.13 0.52-0.19 0.25-0.08 0.51-0.16 0.78-0.24 0.12-0.04 0.25-0.07 0.38-0.1 0.15-0.05 0.3-0.08 0.46-0.13 0.23-0.06 0.47-0.11 0.71-0.17 0.01 0 0.01 0 0.02 0 0.33-0.08 0.66-0.15 1-0.21 0.29-0.06 0.58-0.11 0.88-0.16L26.76 46.02"></path><path fill="#FFFFFF" d="M42.32 48.63c-1.9 1.32-3.99 2.36-6.23 3.11 -0.24-1.87-2.68-3.41-5.92-3.87v-1.85l5.04 0.36c0.3 0.05 0.6 0.1 0.9 0.16 0.07 0 0.14 0.02 0.2 0.04 0.14 0.03 0.28 0.05 0.42 0.09 0.13 0.02 0.25 0.05 0.37 0.08 0.26 0.06 0.51 0.12 0.76 0.19 0.16 0.04 0.32 0.08 0.47 0.13 0.02 0 0.04 0.01 0.05 0.01 0.29 0.08 0.57 0.17 0.85 0.26 0.13 0.04 0.26 0.08 0.38 0.13 0.34 0.12 0.67 0.24 0.98 0.37 0.08 0.03 0.15 0.05 0.23 0.09 0.08 0.02 0.15 0.06 0.22 0.09 0.11 0.04 0.22 0.1 0.33 0.15 0.1 0.04 0.19 0.09 0.29 0.14 0.04 0.01 0.06 0.03 0.1 0.05C41.97 48.44 42.15 48.53 42.32 48.63"></path><path fill="#FFFFFF" d="M8.12 30.26v13.85c-3.12-3.85-5.14-8.62-5.61-13.85H8.12"></path><path fill="#FFFFFF" d="M48.03 30.05V42.8l-1 0.02c0.06-0.27 0.08-0.54 0.08-0.82 0-2.73-2.53-4.9-5.65-4.94 -3.36-0.04-4.58 2.04-4.58 2.04s1.46 0.52 1.99 2.15c0.3 0.92-0.49 1.51-0.49 1.51 -0.11-1.7-1.94-3.36-3.7-3.35 -2.58 0.01-3.93 2.88-3.93 2.88h-2.03v-1.02h-1.52v-9.69h1.52v-1.02h2.03v1.02h1.52v7.65c0.51-0.51 1.02-1.02 2.03-1.02v-6.63l1.57-0.04v6.93c0.43-0.52 0.9-0.96 1.48-1.32V20.34h1.52v16.35c0.49-0.16 0.99-0.52 1.52-0.56V20.34h2.03v15.82c0.53 0.08 1.04 0.21 1.52 0.39V20.34h1.52v16.85c0.64 0.54 1.16 1.31 1.52 2.04v-20.4h-2.54v-1.02h-6.09v1.02h-2.49v10.71H16.54V22.4l-3.46-7.27L9.43 22.4v24.29h2.98c-0.07-0.05-0.14-0.11-0.2-0.18 1.04-0.33 2.19-0.62 3.44-0.88 0.29-0.06 0.59-0.12 0.9-0.17 3.48-0.65 7.63-1.03 12.07-1.03 1.22 0 2.41 0.08 3.57 0.08 1.35 0 3.7 0.27 6.02 0.62l0.6 0.09c2.29 0.36 4.44 0.78 5.45 1.07 0.36 0.1 0.7 0.2 1.03 0.31 -0.04 0.03-0.08 0.08-0.13 0.11h1.26c0.98-0.94 1.88-1.95 2.7-3.03v-0.52h0.38c1.74-2.4 3.06-5.12 3.89-8.05v-5.07L48.03 30.05 48.03 30.05 48.03 30.05zM12.98 27.96c-0.92 0-1.66-0.75-1.66-1.67 0-0.92 0.75-1.67 1.66-1.67 0.93 0 1.67 0.75 1.67 1.67C14.66 27.21 13.91 27.96 12.98 27.96L12.98 27.96zM16.54 31.58h1.52v9.69h-1.52V31.58zM25.18 41.27h-1.52v1.02h-2.03v-1.02H20.1v-9.69h1.52v-1.02h2.03v1.02h1.52V41.27L25.18 41.27z"></path><path fill="#FFFFFF" d="M34.1 28.28H18.86l7.62-3.06L34.1 28.28"></path><path fill="#FFFFFF" d="M28.25 0C12.65 0 0 12.7 0 28.37c0 9.18 4.34 17.33 11.08 22.52 -0.09-0.06-0.18-0.13-0.27-0.2 -0.56 1.87-1.35 3.51-2.67 4.79 -0.92 0.9-1.58 1.47-2.69 2.1 4.31-0.12 8.17-1.19 11.16-3.36 -0.1-0.05-0.19-0.09-0.29-0.14 3.63 1.7 7.66 2.65 11.93 2.65 15.61 0 28.25-12.7 28.25-28.37C56.5 12.7 43.86 0 28.25 0L28.25 0zM28.25 53.18c-13.64 0-24.7-11.11-24.7-24.81 0-13.7 11.06-24.81 24.7-24.81 13.64 0 24.7 11.11 24.7 24.81C52.95 42.08 41.89 53.18 28.25 53.18L28.25 53.18z"></path><path class="logo-custom-fill" fill="#F0B663" d="M28.25 0C12.65 0 0 12.7 0 28.37c0 9.18 4.34 17.33 11.08 22.52 -0.09-0.06-0.18-0.13-0.27-0.2 -0.56 1.87-1.65 3.53-2.97 4.82 -0.92 0.9-1.28 1.44-2.39 2.07 4.31-0.12 8.17-1.19 11.16-3.36 -0.1-0.05-0.19-0.09-0.29-0.14 3.63 1.7 7.66 2.65 11.93 2.65 15.61 0 28.25-12.7 28.25-28.37C56.5 12.7 43.86 0 28.25 0L28.25 0zM28.25 53.18c-13.64 0-24.7-11.11-24.7-24.81 0-13.7 11.06-24.81 24.7-24.81 13.64 0 24.7 11.11 24.7 24.81C52.95 42.08 41.89 53.18 28.25 53.18L28.25 53.18z"></path><path fill="#FFFFFF" d="M37.74 42.87c0 0.04-0.01 0.07-0.01 0.1h-0.01C37.73 42.94 37.74 42.9 37.74 42.87"></path><path fill="#FFFFFF" d="M38.95 45.39v0.09l-0.6-0.09H38.95"></path><path fill="#FFFFFF" d="M68 24.03c1.73-1.73 3.82-2.6 6.28-2.6 2.27 0 4.25 0.77 5.96 2.3 0.25 0.23 0.25 0.46 0.03 0.69l-1.5 1.56c-0.2 0.22-0.4 0.22-0.62 0 -1.1-0.97-2.36-1.46-3.79-1.46 -1.56 0-2.87 0.57-3.92 1.7 -1.05 1.12-1.58 2.47-1.58 4.05 0 1.57 0.52 2.9 1.58 4.01 1.07 1.14 2.38 1.7 3.94 1.7 1.36 0 2.62-0.47 3.77-1.41 0.21-0.2 0.42-0.2 0.62 0l1.53 1.58c0.23 0.2 0.22 0.42-0.03 0.67 -1.64 1.6-3.64 2.4-5.99 2.4 -2.46 0-4.56-0.86-6.28-2.6 -1.74-1.71-2.61-3.81-2.61-6.28C65.39 27.89 66.26 25.78 68 24.03"></path><path fill="#FFFFFF" d="M81.58 38.99c-0.18 0-0.31-0.06-0.39-0.2 -0.1-0.13-0.11-0.28-0.03-0.44l7.66-16.64c0.1-0.18 0.24-0.27 0.42-0.27h0.25c0.2 0 0.34 0.09 0.42 0.27l7.59 16.64c0.08 0.17 0.07 0.31-0.03 0.44 -0.08 0.13-0.21 0.2-0.39 0.2h-2.14c-0.31 0-0.55-0.17-0.71-0.49l-1.21-2.67h-7.36l-1.21 2.67c-0.13 0.33-0.37 0.49-0.71 0.49H81.58L81.58 38.99zM91.8 33.08l-2.46-5.44h-0.07l-2.41 5.44H91.8L91.8 33.08z"></path><path fill="#FFFFFF" d="M101.65 21.8c0.03-0.25 0.18-0.37 0.44-0.37h0.39c0.2 0 0.34 0.08 0.42 0.25l5.42 11.67h0.08l5.42-11.67c0.08-0.16 0.22-0.25 0.42-0.25h0.39c0.26 0 0.41 0.12 0.44 0.37l2.91 16.61c0.08 0.38-0.06 0.57-0.44 0.57h-2.24c-0.25 0-0.4-0.12-0.47-0.37l-1.45-9.37h-0.07l-4.31 9.72c-0.07 0.18-0.21 0.27-0.42 0.27h-0.44c-0.18 0-0.32-0.09-0.42-0.27l-4.36-9.72h-0.07l-1.43 9.37c-0.03 0.25-0.18 0.37-0.44 0.37h-2.22c-0.36 0-0.52-0.19-0.47-0.57L101.65 21.8"></path><path fill="#FFFFFF" d="M121.34 22.53c0-0.31 0.16-0.47 0.47-0.47h5.79c1.51 0 2.81 0.54 3.89 1.61 1.08 1.07 1.63 2.36 1.63 3.86 0 1.53-0.54 2.84-1.63 3.93 -1.07 1.09-2.36 1.63-3.87 1.63h-3.08v5.81c0 0.31-0.16 0.47-0.47 0.47h-2.27c-0.31 0-0.47-0.16-0.47-0.47V22.53L121.34 22.53zM127.4 30.07c0.69 0 1.29-0.25 1.8-0.74 0.49-0.49 0.74-1.1 0.74-1.83 0-0.67-0.25-1.24-0.74-1.7 -0.51-0.46-1.11-0.69-1.8-0.69h-2.86v4.97H127.4L127.4 30.07z"></path><path fill="#FFFFFF" d="M135.8 22.53c0-0.31 0.15-0.47 0.47-0.47h2.34c0.31 0 0.47 0.16 0.47 0.47v10.11c0 1.07 0.33 1.96 0.99 2.67 0.67 0.72 1.54 1.09 2.59 1.09 1.05 0 1.92-0.36 2.61-1.09 0.66-0.71 0.99-1.59 0.99-2.65V22.53c0-0.31 0.16-0.47 0.47-0.47h2.34c0.31 0 0.47 0.16 0.47 0.47v10.28c0 1.9-0.66 3.5-1.97 4.8 -1.33 1.33-2.96 2-4.9 2 -1.92 0-3.55-0.67-4.88-2 -1.31-1.3-1.97-2.9-1.97-4.8V22.53"></path><path fill="#FFFFFF" d="M152.86 36.56l0.89-1.53c0.1-0.17 0.24-0.26 0.42-0.27 0.16-0.03 0.3 0 0.42 0.1 1.69 1.02 2.93 1.53 3.72 1.53 0.64 0 1.17-0.18 1.6-0.54 0.43-0.38 0.64-0.83 0.64-1.36 0-1.14-1.04-2.13-3.13-2.96 -3.09-1.25-4.63-3.03-4.63-5.34 0-1.25 0.43-2.32 1.31-3.19 1.02-1.04 2.43-1.56 4.24-1.56 1.82 0 3.46 0.55 4.92 1.66 0.12 0.07 0.19 0.19 0.22 0.37 0.03 0.17 0.01 0.31-0.07 0.45l-0.94 1.41c-0.26 0.39-0.55 0.49-0.86 0.3 -1.45-0.91-2.59-1.36-3.42-1.36 -0.66 0-1.19 0.19-1.6 0.57 -0.38 0.35-0.57 0.74-0.57 1.16 0 1.06 0.97 1.98 2.91 2.77 3.43 1.39 5.15 3.25 5.15 5.59 0 1.34-0.51 2.47-1.53 3.41 -1.08 0.99-2.46 1.48-4.14 1.48 -2.27 0-4.07-0.64-5.42-1.93C152.76 37.08 152.72 36.83 152.86 36.56"></path><path class="logo-custom-fill" fill="#F0B663" d="M167.24 22.39c0-0.22 0.11-0.32 0.32-0.32h5.25c1.53 0 2.76 0.4 3.69 1.21 0.94 0.82 1.4 1.91 1.4 3.26 0 1.95-0.9 3.28-2.71 4 2.17 0.58 3.25 1.95 3.25 4.13 0 1.38-0.5 2.51-1.5 3.39 -1.02 0.87-2.32 1.31-3.92 1.31h-5.47c-0.21 0-0.32-0.11-0.32-0.32V22.39L167.24 22.39zM173.12 38.33c1.2 0 2.18-0.35 2.93-1.04 0.75-0.69 1.13-1.57 1.13-2.64 0-1.07-0.41-1.93-1.23-2.57 -0.79-0.63-1.78-0.94-2.98-0.94h-4.61v7.19H173.12L173.12 38.33zM172.97 30.07c1.13 0 2.04-0.33 2.71-0.99 0.64-0.63 0.96-1.46 0.96-2.5 0-1.07-0.34-1.91-1.04-2.52 -0.69-0.61-1.63-0.91-2.81-0.91h-4.41v6.92H172.97L172.97 30.07z"></path><path class="logo-custom-fill" fill="#F0B663" d="M182.33 22.39c0-0.22 0.11-0.32 0.32-0.32h0.52c0.21 0 0.32 0.11 0.32 0.32v10.55c0 1.63 0.47 2.95 1.41 3.96 0.97 1.06 2.26 1.58 3.87 1.58 1.63 0 2.92-0.52 3.89-1.56 0.95-1.02 1.43-2.34 1.43-3.96V22.39c0-0.22 0.11-0.32 0.34-0.32h0.49c0.22 0 0.32 0.11 0.32 0.32v10.68c0 1.91-0.59 3.48-1.77 4.7 -1.2 1.24-2.77 1.85-4.71 1.85 -1.92 0-3.48-0.62-4.68-1.85 -1.17-1.22-1.75-2.79-1.75-4.7V22.39"></path><path class="logo-custom-fill" fill="#F0B663" d="M200.56 22.39c0-0.22 0.11-0.32 0.32-0.32h5.25c1.53 0 2.76 0.4 3.69 1.21 0.94 0.82 1.4 1.91 1.4 3.26 0 1.95-0.9 3.28-2.71 4 2.17 0.58 3.25 1.95 3.25 4.13 0 1.38-0.5 2.51-1.5 3.39 -1.02 0.87-2.32 1.31-3.92 1.31h-5.47c-0.21 0-0.32-0.11-0.32-0.32V22.39L200.56 22.39zM206.45 38.33c1.2 0 2.18-0.35 2.93-1.04 0.76-0.69 1.13-1.57 1.13-2.64 0-1.07-0.41-1.93-1.23-2.57 -0.79-0.63-1.78-0.94-2.98-0.94h-4.6v7.19H206.45L206.45 38.33zM206.3 30.07c1.13 0 2.04-0.33 2.71-0.99 0.64-0.63 0.96-1.46 0.96-2.5 0-1.07-0.34-1.91-1.03-2.52 -0.69-0.61-1.62-0.91-2.81-0.91h-4.41v6.92H206.3L206.3 30.07z"></path><path class="logo-custom-fill" fill="#F0B663" d="M215.65 22.39c0-0.22 0.11-0.32 0.32-0.32h5.25c1.53 0 2.76 0.4 3.69 1.21 0.94 0.82 1.4 1.91 1.4 3.26 0 1.95-0.9 3.28-2.71 4 2.17 0.58 3.25 1.95 3.25 4.13 0 1.38-0.5 2.51-1.5 3.39 -1.02 0.87-2.32 1.31-3.92 1.31h-5.47c-0.22 0-0.32-0.11-0.32-0.32V22.39L215.65 22.39zM221.54 38.33c1.2 0 2.18-0.35 2.93-1.04 0.76-0.69 1.13-1.57 1.13-2.64 0-1.07-0.41-1.93-1.23-2.57 -0.79-0.63-1.78-0.94-2.98-0.94h-4.6v7.19H221.54L221.54 38.33zM221.39 30.07c1.13 0 2.04-0.33 2.71-0.99 0.64-0.63 0.96-1.46 0.96-2.5 0-1.07-0.35-1.91-1.03-2.52 -0.69-0.61-1.62-0.91-2.81-0.91h-4.41v6.92H221.39L221.39 30.07z"></path><path class="logo-custom-fill" fill="#F0B663" d="M230.74 22.39c0-0.22 0.11-0.32 0.32-0.32h0.54c0.2 0 0.3 0.11 0.3 0.32v15.94h7.86c0.21 0 0.32 0.11 0.32 0.32v0.44c0 0.18-0.11 0.27-0.32 0.27h-8.69c-0.22 0-0.32-0.11-0.32-0.32V22.39"></path><path class="logo-custom-fill" fill="#F0B663" d="M243.31 22.39c0-0.22 0.11-0.32 0.32-0.32h9.88c0.21 0 0.32 0.11 0.32 0.32v0.42c0 0.22-0.11 0.32-0.32 0.32h-9.02v6.82h7.81c0.21 0 0.32 0.11 0.32 0.32v0.42c0 0.22-0.11 0.32-0.32 0.32h-7.81v7.32h9.02c0.21 0 0.32 0.11 0.32 0.32v0.39c0 0.22-0.11 0.32-0.32 0.32h-9.88c-0.22 0-0.32-0.11-0.32-0.32V22.39"></path></svg>